<svg id="Layer_1" height="512" viewBox="0 0 512 512" width="512" xmlns="http://www.w3.org/2000/svg" data-name="Layer 1"><path d="m384 352-8-250.3-8.628-33.685a79.819 79.819 0 0 0 -77.323-60.015h-68.1a79.819 79.819 0 0 0 -77.322 60.013l-8.627 33.687-8 250.3" fill="#8f4c2e"/><path d="m504 512v-33.805l-56-126.195h-384l-56 120v40z" fill="#cce9ea"/><path d="m120 496v16h264v-16c-32-40-24-144-24-144h-216s8 104-24 144z" fill="#354458"/><path d="m304 512v-24c18-24 24-96 24-96v-40h-144v40s6 72 24 96v24z" fill="#9fd3d3"/><path d="m200 264v88l56 48 56-48v-88z" fill="#e8b28e"/><path d="m200 323.212c52.244 18.922 94.943-7.19 112-20.387v-30.825h-112z" fill="#eaa475"/><path d="m272 40s8 56 64 72v144l-56 48h-48l-56-48v-168l32-48z" fill="#fdcaa7"/><g opacity=".3"><path d="m216.988 213.316-.988-173.316h-8l-32 48v168l56 48h48l11.017-9.443-53.421-38.852a50.12 50.12 0 0 1 -20.608-42.389z" fill="#f9f2ed"/></g><path d="m272 512v-72h-32v72" fill="#231f20"/><path d="m280 512h-16v-64h-16v64h-16v-72a8 8 0 0 1 8-8h32a8 8 0 0 1 8 8z" fill="#231f20"/><g opacity=".81"><path d="m320 208v32l-40 32h-48l-40-32v-32h-16v48l56 48h48l56-48v-48z" fill="#60230e"/></g><path d="m224 384v32a8 8 0 0 0 .411 2.53l8 24a8 8 0 0 0 7.589 5.47h32a8 8 0 0 0 7.589-5.47l8-24a8 8 0 0 0 .411-2.53v-32z" fill="#3b4c62"/><g opacity=".4"><path d="m8 472v3.864c20.241-8.384 40.86-22.091 59.316-40.548 25.857-25.857 42.4-55.956 48.029-83.316h-51.345z" fill="#f9f2ed"/></g><path d="m256 384c-24 8-32 56-32 56l-40-48v-40h16z" fill="#79b5b4"/><path d="m328 352v40l-40 48s-8-48-32-56l56-32z" fill="#79b5b4"/><path d="m256 200h16v-16h-8v-48h-16v56a8 8 0 0 0 8 8z"/><path d="m234.343 133.657 11.313-11.313-8-8a8 8 0 0 0 -5.656-2.344h-32v16h28.687z"/><path d="m283.313 128h28.687v-16h-32a8 8 0 0 0 -5.657 2.343l-8 8 11.313 11.313z"/><path d="m511.312 474.949-56-126.194a8 8 0 0 0 -7.312-4.755h-56.251l-7.749-242.558a8.043 8.043 0 0 0 -.246-1.729l-8.628-33.685a87.78 87.78 0 0 0 -85.077-66.028h-68.1a87.78 87.78 0 0 0 -85.073 66.028l-8.626 33.685a8.043 8.043 0 0 0 -.246 1.729l-7.753 242.558h-56.251a8 8 0 0 0 -7.25 4.617l-56 120a8.005 8.005 0 0 0 -.75 3.383v40h16v-38.225l53.095-113.775h67.343a458.988 458.988 0 0 1 -.421 48.485c-1.307 20.245-4.017 37.672-8.017 51.864v-44.349h-16v96h16v-13.309c26.566-36.469 25.633-112.854 24.473-138.691h23.527v32c0 .223.011.444.029.664v.03.008c.28 3.345 6.12 70.63 23.969 97.814v21.484h16v-24a8 8 0 0 0 -1.6-4.8c-9.315-12.42-15.62-41.751-19.194-65.257l22.648 27.178a8 8 0 0 0 14.037-3.806c.012-.071.027-.153.04-.225l.069.208v70.702h16v-64h16v64h16v-70.7l.069-.207c.012.072.028.154.04.225a8 8 0 0 0 14.037 3.806l22.656-27.187c-3.571 23.5-9.874 52.829-19.2 65.263a8 8 0 0 0 -1.6 4.8v24h16v-21.483c17.849-27.184 23.689-94.469 23.969-97.814v-.008-.03c.018-.22.029-.442.029-.664v-32.001h15.538a471.446 471.446 0 0 0 .479 49.515c2.647 41.028 10.715 71 23.983 89.175v13.31h16v-96h-15.998v44.347c-3.984-14.146-6.693-31.506-8-51.666a459.47 459.47 0 0 1 -.437-48.681h75.237l53.2 119.89v32.11h16v-33.806a8.006 8.006 0 0 0 -.688-3.245zm-287.779-62.821c-1.41 3.666-2.592 7.246-3.57 10.532l-27.963-33.56v-29.1h5.876l42.664 24.379c-6.612 6.246-12.304 15.521-17.007 27.749zm53.507-116.128h-13.04v-24h-16v24h-13.041l-34.959-29.965v-58.035h-16v-117.578l28.281-42.422h53.267a109.964 109.964 0 0 0 10.479 25.922c11.82 21.014 29.708 36.1 51.973 43.925v90.153h-16v58.034zm26.96-2.035v53.392l-48 27.429-48-27.429v-53.391l18.793 16.108a8 8 0 0 0 5.207 1.926h48a8 8 0 0 0 5.207-1.926zm-37.766 138.035h-20.468l-5.87-17.609c3.965-9.3 9.337-18.011 16.1-21.68 6.752 3.669 12.124 12.4 16.094 21.712zm53.766-42.9-27.963 33.56c-.978-3.286-2.16-6.866-3.57-10.532-4.7-12.227-10.395-21.5-17.006-27.749l42.663-24.379h5.876zm32-45.1v-48h-16v48h-16v-63.749l21.207-18.177a8 8 0 0 0 2.793-6.074v-144a8 8 0 0 0 -5.8-7.692c-20.933-5.98-37.062-18.674-47.94-37.727a89.165 89.165 0 0 1 -10.34-27.731 8 8 0 0 0 -7.92-6.85h-64a8 8 0 0 0 -6.656 3.563l-32 48a8 8 0 0 0 -1.344 4.437v168a8 8 0 0 0 2.793 6.074l21.207 18.177v63.749h-24v-48h-16v48h-15.74l7.708-241.168 8.41-32.832a71.787 71.787 0 0 1 69.573-54h68.1a71.787 71.787 0 0 1 69.573 54l8.41 32.833 7.706 241.167z"/><path d="m208 136h16v16h-16z"/><path d="m288 136h16v16h-16z"/><path d="m264 208h-16a8 8 0 0 0 -1.94.239l-32 8 3.881 15.522 31.044-7.761h14.03l31.044 7.761 3.881-15.522-32-8a8 8 0 0 0 -1.94-.239z"/><path d="m268.687 240h-25.374l-5.657-5.657-11.313 11.313 8 8a8 8 0 0 0 5.657 2.344h32a8 8 0 0 0 5.657-2.343l8-8-11.313-11.313z"/></svg>