<svg id="Layer_1" height="512" viewBox="0 0 512 512" width="512" xmlns="http://www.w3.org/2000/svg" data-name="Layer 1"><path d="m504 512v-40l-72-64h-344l-80 64v40" fill="#e29e30"/><path d="m384 408-8-250.302-24-61.698h-200l-16 61.698-8 250.302" fill="#8f4c2e"/><path d="m200 312v96l56 90.302 56-90.302v-96z" fill="#e8b28e"/><path d="m200 385.347c52.244 18.922 94.943-7.19 112-20.387v-30.825h-112z" fill="#eaa475"/><path d="m272 96s8 56 64 72v144l-56 48h-48l-56-48v-168l32-48z" fill="#fdcaa7"/><g opacity=".3"><path d="m216.988 269.316v-173.316h-8.988l-32 48v168l56 48h48l11.017-9.443-53.421-38.852a50.12 50.12 0 0 1 -20.608-42.389z" fill="#f9f2ed"/></g><path d="m314.325 9.861-58.325 6.139-50.131-5.9a16 16 0 0 0 -17.869 15.893v38.007h144v-38.227a16 16 0 0 0 -17.675-15.912z" fill="#293f56"/><path d="m108 64h304v32h-304z" fill="#354458"/><g opacity=".2"><path d="m67.316 491.316c25.857-25.857 42.4-55.956 48.029-83.316h-27.345l-80 64v40h35.107a201.571 201.571 0 0 0 24.209-20.684z" fill="#f9f2ed"/></g><g opacity=".3"><path d="m256 16-50.131-5.9a16 16 0 0 0 -17.869 15.893v38.007h44l43.826-50.087z" fill="#f9f2ed"/></g><path d="m256 256h16v-16h-8v-48h-16v56a8 8 0 0 0 8 8z"/><path d="m285.657 293.657 8-8-11.313-11.313-5.657 5.656h-49.374l-5.657-5.657-11.313 11.313 8 8a8 8 0 0 0 5.657 2.344h56a8 8 0 0 0 5.657-2.343z"/><path d="m234.343 189.657 11.313-11.313-8-8a8 8 0 0 0 -5.656-2.344h-32v16h28.687z"/><path d="m283.313 184h28.687v-16h-32a8 8 0 0 0 -5.657 2.343l-8 8 11.313 11.313z"/><path d="m208 192h16v16h-16z"/><path d="m288 192h16v16h-16z"/><path d="m509.315 466.021-72-64a8 8 0 0 0 -5.315-2.021h-40.251l-7.749-242.558a8.01 8.01 0 0 0 -.541-2.645l-19.759-50.797h48.3a8 8 0 0 0 8-8v-32a8 8 0 0 0 -8-8h-72v-30.228a24 24 0 0 0 -26.512-23.872l-57.439 6.051-49.249-5.794a24 24 0 0 0 -26.8 23.836v30.007h-72a8 8 0 0 0 -8 8v32a8 8 0 0 0 8 8h33.661l-13.4 51.689a7.993 7.993 0 0 0 -.252 1.753l-7.758 242.558h-32.251a8 8 0 0 0 -5 1.753l-80 64a8 8 0 0 0 -3 6.247v40h16v-36.155l74.806-59.845h104.742l53.652 86.519a8 8 0 0 0 13.6 0l53.652-86.519h112.506l67.042 59.592v36.408h16v-40a8 8 0 0 0 -2.685-5.979zm-141.267-306.7 7.692 240.679h-23.74v-48h-16v48h-16v-63.749l21.207-18.177a8 8 0 0 0 2.793-6.074v-144a8 8 0 0 0 -5.8-7.692c-20.933-5.98-37.062-18.674-47.94-37.727a94.437 94.437 0 0 1 -8.068-18.581h64.336zm-184.048 148.999v-161.9l28.281-42.42h53.267a109.964 109.964 0 0 0 10.479 25.922c11.82 21.014 29.708 36.1 51.973 43.925v134.473l-50.96 43.68h-42.081zm12-282.327a8 8 0 0 1 8.935-7.945l50.13 5.9a8.022 8.022 0 0 0 1.772.011l58.325-6.14a8 8 0 0 1 8.838 7.953v30.228h-128zm-80 46.007h288v16h-288zm27.967 86.843 14.223-54.843h34.862l-23.708 35.563a8 8 0 0 0 -1.344 4.437v168a8 8 0 0 0 2.793 6.074l21.207 18.177v63.749h-24v-48h-16v48h-15.74zm112.033 324.28-48-77.4v-55.757l18.793 16.108a8 8 0 0 0 5.207 1.926h48a8 8 0 0 0 5.207-1.926l18.793-16.109v55.755z"/><path d="m112 496h16v16h-16z"/><path d="m377 496h16v16h-16z"/></svg>