<svg id="Layer_1" height="512" viewBox="0 0 512 512" width="512" xmlns="http://www.w3.org/2000/svg" data-name="Layer 1"><path d="m255.648 21.99c-15.156-.892-13.068-12.612-30.942-9.264-8.67 1.624-15.369 15.7-25.884 19.783-8.786 3.416-23.365-2.757-32.45 3.081-8.047 5.171-8.568 20.727-16.183 28.27-6.787 6.723-22.489 6.88-28.464 15.821-5.288 7.913.316 22.5-4.008 32.378-3.812 8.712-18.475 14.248-21.314 24.65-2.51 9.2 7.17 21.149 5.576 31.777-.933 11.483-11.98 8.546-11.865 22.605.055 6.675 12.134 14.361 12.253 22.906.1 7.243-11.769 15.214-11.606 23.245.153 7.515 12.332 14.971 12.552 22.744.218 7.722-11.52 15.874-11.223 23.441.312 7.953 12.657 15.133 13.069 22.451.471 8.348-10.955 17.006-10.334 23.864.891 9.843 13.743 15.794 15 20.8l2.175 9.458h280l10.179-9.455c1.252-5.008 14.1-10.96 15-20.8.621-6.857-10.805-15.514-10.335-23.859.412-7.315 12.757-14.494 13.069-22.444.3-7.566-11.441-15.717-11.223-23.439.22-7.776 12.4-15.235 12.552-22.753.163-8.032-11.707-16-11.606-23.246.119-8.546 12.2-16.234 12.253-22.91.115-14.057-10.932-11.12-11.865-22.6-1.594-10.629 8.085-22.583 5.575-31.781-2.839-10.4-17.5-15.938-21.315-24.65-4.325-9.883 1.278-24.466-4.01-32.379-5.974-8.94-21.676-9.1-28.463-15.819-7.615-7.543-8.136-23.1-16.182-28.269-9.085-5.838-23.663.335-32.449-3.08-10.514-4.087-17.214-18.159-25.884-19.782-17.873-3.347-15.784 8.373-30.94 9.265l-.356.001z" fill="#3a1e13"/><path d="m8 512v-16l72.858-136.144a24 24 0 0 1 17.759-7.856h101.383v-96l112-8v104h108.343a24 24 0 0 1 18.864 9.163l64.793 126.837v24" fill="#c46f35"/><path d="m200 307.212c52.244 18.922 94.943-7.19 112-20.387v-30.825h-112z" fill="#a05c2e"/><path d="m175.556 144.473 32.444-16.473h24l24-32 32-16 16 24v8l24 8 8 16v96l-43.233 57.048a16 16 0 0 1 -13.2 6.952h-39.877a16 16 0 0 1 -12.494-6l-51.196-58v-88" fill="#c46f35"/><g opacity=".5"><path d="m280.721 295.954c.112-.008.223-.02.334-.031q.421-.039.836-.1c.111-.016.221-.033.332-.051q.483-.082.958-.191c.05-.012.1-.021.15-.033q.582-.141 1.15-.324l.046-.016c.356-.116.708-.247 1.054-.387l.155-.065c.336-.141.667-.291.993-.454l.065-.032a16.1 16.1 0 0 0 2.088-1.27l-51.287-37.3a50.121 50.121 0 0 1 -20.607-42.389v-85.311h-8.988l-32 16.247v87.753l51.2 58a16 16 0 0 0 12.494 6h39.882c.381 0 .764-.018 1.145-.046z" fill="#e28140"/></g><circle cx="160" cy="256" fill="#ed3106" r="24"/><circle cx="352" cy="256" fill="#ed3106" r="24"/><path d="m95.502 512 .498-40 72-48 96 80 88-80 64 40v48z" fill="#f28775"/><g opacity=".2"><path d="m137.357 352h-38.74a24 24 0 0 0 -17.759 7.856l-38.4 71.759c11.942-2.167 64.603-15.188 94.899-79.615z" fill="#f9f2ed"/></g><path d="m216 144h16v16h-16z"/><path d="m288 144h16v16h-16z"/><circle cx="208" cy="192" r="8"/><circle cx="304" cy="192" r="8"/><path d="m511.124 484.361-64.793-126.837a7.957 7.957 0 0 0 -.836-1.307 31.815 31.815 0 0 0 -25.152-12.217h-1.432c3.074-3.588 5.73-7.99 6.232-13.54.554-6.121-3-11.416-6.127-16.088-1.683-2.51-4.213-6.287-4.19-7.975.31-1.227 2.871-4.21 4.408-6 3.938-4.586 8.4-9.784 8.67-16.647.257-6.55-3.647-11.921-7.092-16.66-1.519-2.089-4.06-5.585-4.129-6.852.125-1.308 2.9-4.692 4.551-6.714 3.689-4.507 7.871-9.616 8-16.117.141-6.893-3.988-12.378-7.632-17.219-1.394-1.852-3.712-4.932-3.97-6.167.117-1.822 3.017-5.456 4.946-7.874 3.566-4.47 7.255-9.091 7.3-14.994.092-11.267-5.58-16.075-8.97-18.948-2.364-2-2.762-2.394-2.922-4.368-.015-.18-.035-.359-.062-.538-.488-3.259 1.115-7.853 2.665-12.295 2.18-6.245 4.65-13.324 2.717-20.406-2.215-8.115-8.553-13.392-14.146-18.048-3.237-2.7-6.586-5.484-7.558-7.7-1.338-3.058-1.169-7.944-1-12.67.239-6.877.51-14.672-3.684-20.947-4.8-7.186-12.764-10.014-19.79-12.51-3.912-1.39-7.957-2.827-9.694-4.547-2.338-2.316-4.044-6.812-5.692-11.161-2.486-6.555-5.3-13.983-11.794-18.154-7.318-4.7-15.812-4.092-23.3-3.553-4.117.3-8.372.6-10.571-.253-3.513-1.365-7.081-5.074-10.532-8.661-4.845-5.033-9.845-10.233-16.78-11.532-13.444-2.516-19.565 2.086-24.028 5.448-2.8 2.109-4.513 3.4-8.638 3.68h-.2c-4.125-.283-5.836-1.57-8.639-3.68-4.467-3.361-10.58-7.965-24.028-5.448-6.936 1.3-11.938 6.5-16.777 11.528-3.451 3.587-7.02 7.3-10.532 8.661-2.2.854-6.456.549-10.571.254-7.5-.539-15.986-1.148-23.3 3.553-6.492 4.171-9.31 11.6-11.8 18.156-1.649 4.349-3.354 8.845-5.692 11.161-1.737 1.721-5.783 3.159-9.7 4.549-7.026 2.5-14.989 5.326-19.79 12.511-4.193 6.275-3.922 14.07-3.683 20.947.164 4.725.334 9.611-1 12.669-.972 2.22-4.319 5.008-7.558 7.7-5.592 4.656-11.93 9.933-14.145 18.047-1.933 7.082.538 14.16 2.718 20.4 1.55 4.442 3.153 9.035 2.665 12.292q-.041.268-.062.538c-.161 1.976-.558 2.365-2.923 4.37-3.389 2.874-9.061 7.682-8.969 18.949.049 5.9 3.737 10.523 7.3 14.993 1.929 2.417 4.829 6.051 4.945 7.871-.258 1.235-2.576 4.315-3.97 6.167-3.644 4.84-7.772 10.326-7.632 17.218.132 6.5 4.314 11.608 8 16.114 1.654 2.02 4.424 5.4 4.549 6.671-.067 1.3-2.609 4.8-4.128 6.89-3.444 4.739-7.349 10.111-7.092 16.661.27 6.864 4.731 12.063 8.669 16.651 1.538 1.792 4.1 4.777 4.409 6 .022 1.689-2.509 5.466-4.191 7.978-3.131 4.672-6.679 9.968-6.126 16.091.522 5.769 3.373 10.3 6.6 13.96a32.071 32.071 0 0 0 -18.519 10.05 7.976 7.976 0 0 0 -1.135 1.606l-72.846 136.157a8 8 0 0 0 -.946 3.775v16h16v-13.994l71.4-133.411a16.035 16.035 0 0 1 11.217-4.595h46.965l13.418 60.385-67.437 44.959a8 8 0 0 0 -3.563 6.556l-.5 40 16 .2.445-35.783 63.521-42.347 91.411 76.176a8 8 0 0 0 10.5-.227l83.523-75.919 55.1 34.434v43.566h16v-48a8 8 0 0 0 -3.76-6.784l-58.659-36.662 20.186-60.554h38.576a15.9 15.9 0 0 1 12.13 5.566l63.527 124.359v22.075h16v-24a7.992 7.992 0 0 0 -.876-3.639zm-409.693-299.949c3.082-2.613 7.724-6.548 8.5-15.011.977-7.069-1.357-13.757-3.421-19.666-1.412-4.046-3.012-8.631-2.388-10.919.888-3.254 4.984-6.665 8.946-9.964 4.667-3.885 9.492-7.9 11.979-13.586 2.8-6.392 2.552-13.43 2.336-19.639-.155-4.46-.331-9.516 1-11.5 1.854-2.774 6.932-4.579 11.843-6.324 5.567-1.978 11.323-4.023 15.6-8.258 4.807-4.761 7.243-11.186 9.393-16.854 1.609-4.242 3.433-9.05 5.485-10.369 2.834-1.822 8.258-1.433 13.508-1.056 5.881.423 11.962.86 17.515-1.3 6.8-2.644 11.828-7.87 16.265-12.481 2.8-2.913 6.292-6.539 8.193-6.9 6.512-1.219 8.063-.053 11.461 2.5 3.559 2.678 8.433 6.347 17.538 6.882.156.009.313.014.47.014h.705c.156 0 .313 0 .47-.014 9.105-.536 13.979-4.2 17.537-6.883 3.4-2.557 4.95-3.725 11.46-2.5 1.9.356 5.39 3.981 8.192 6.9 4.437 4.611 9.466 9.837 16.266 12.48 5.553 2.158 11.633 1.721 17.515 1.3 5.248-.378 10.672-.768 13.509 1.055 2.051 1.318 3.874 6.125 5.482 10.367 2.15 5.668 4.587 12.093 9.394 16.855 4.275 4.234 10.031 6.279 15.6 8.256 4.91 1.745 9.988 3.549 11.843 6.323 1.327 1.986 1.151 7.042 1 11.5-.215 6.209-.46 13.247 2.337 19.639 2.487 5.684 7.313 9.7 11.979 13.586 3.962 3.3 8.06 6.709 8.947 9.965.625 2.289-.976 6.875-2.388 10.922-2.062 5.91-4.4 12.6-3.42 19.669.777 8.462 5.418 12.4 8.5 15.008 2.512 2.129 3.31 2.806 3.316 6.355-.4 1.133-2.444 3.689-3.811 5.4-3.717 4.657-8.341 10.452-8.442 17.72-.087 6.256 3.778 11.392 7.188 15.923 1.554 2.064 4.446 5.908 4.424 7.2-.2 1.25-2.822 4.46-4.393 6.377-3.738 4.566-7.976 9.742-8.163 16.382-.187 6.592 3.727 11.976 7.18 16.726 1.472 2.025 3.936 5.415 4.046 6.624-.085 1.337-3.166 4.926-4.821 6.854-3.7 4.307-7.889 9.188-8.241 15.455-.4 7.007 3.635 13.02 6.872 17.851 1.271 1.9 3.172 4.732 3.459 5.94-.409 2.841-4.035 6.183-6.961 8.88a40.154 40.154 0 0 0 -5.6 5.9h-76.635v-77.638l1.224-1.615a31.983 31.983 0 1 0 22.776-39.73v-71.136a58.456 58.456 0 0 0 8.113.9c2.165.133 5.131.315 6.1.8l7.156-14.311c-3.887-1.943-8.15-2.205-12.274-2.458-3.344-.205-7.134-.438-8.808-1.712a2.058 2.058 0 0 1 -.285-.279v-.817h-.572a41.989 41.989 0 0 1 -2.38-5.4c-1.715-4.412-3.658-9.412-7.766-13.1-4.134-3.714-9.359-5.071-13.97-6.269-2.515-.653-5.959-1.547-6.935-2.516-1.444-1.432-2.4-4.966-3.243-8.085-1.162-4.3-2.479-9.164-5.878-12.792-1.98-2.113-3.328-3.812-4.411-5.178-5.574-7.027-9.217-8.264-19.482-6.607a8 8 0 0 0 -5.127 3.1c-2.492 3.323-6.126 4.945-10.726 7-3.966 1.77-8.46 3.777-12.542 7.242-4.432 3.761-7.732 8.578-10.645 12.827-3.022 4.411-5.878 8.578-9.087 10.344-3.746 2.062-9.024 2.273-14.613 2.5-5.233.209-10.645.426-15.755 2.2-6.286 2.178-11.541 5.945-16.177 9.269a50.778 50.778 0 0 1 -8.727 5.465h-7.966v1.352a15.042 15.042 0 0 1 -7.41-1.749 36.62 36.62 0 0 0 -16.59-3.603v16a20.892 20.892 0 0 1 10.11 2.233 30.149 30.149 0 0 0 13.89 3.111v71.669a32 32 0 1 0 23.493 36.625l.507.575v81.787h-76.623a40.12 40.12 0 0 0 -5.6-5.9c-2.926-2.7-6.551-6.039-6.96-8.876.286-1.208 2.188-4.045 3.459-5.943 3.238-4.832 7.268-10.845 6.872-17.853-.354-6.268-4.544-11.149-8.24-15.457-1.656-1.929-4.738-5.521-4.823-6.8.11-1.271 2.575-4.662 4.047-6.688 3.453-4.75 7.366-10.135 7.18-16.726-.187-6.64-4.426-11.813-8.164-16.379-1.569-1.916-4.2-5.123-4.387-6.3-.027-1.364 2.865-5.207 4.419-7.271 3.41-4.531 7.275-9.666 7.188-15.923-.1-7.267-4.727-13.062-8.442-17.718-1.366-1.712-3.406-4.268-3.811-5.4.006-3.548.805-4.225 3.316-6.354zm106.426 71.588-23.857-27.026v-79.054a73.723 73.723 0 0 0 10.016-6.394c3.934-2.82 8-5.736 12.092-7.154 2.875-1 6.9-1.157 11.155-1.327 6.861-.274 14.637-.585 21.689-4.466 6.542-3.6 10.624-9.557 14.57-15.316 2.572-3.754 5-7.3 7.8-9.674 2.339-1.985 5.292-3.3 8.711-4.83 4.807-2.146 10.16-4.536 14.723-9.315.223-.025.414-.043.578-.058.3.369.661.818.977 1.216 1.2 1.511 2.841 3.581 5.269 6.172.688.771 1.544 3.937 2.11 6.032 1.3 4.814 2.922 10.806 7.421 15.268 4.042 4.009 9.428 5.408 14.18 6.642 2.843.738 6.064 1.575 7.3 2.684 1.27 1.141 2.479 4.252 3.546 7 .573 1.474 1.171 3.01 1.865 4.532v88.382l-41.609 54.905c-.076.1-.15.2-.222.308a8 8 0 0 1 -6.6 3.476h-39.881a7.961 7.961 0 0 1 -6.247-3c-.081-.1-.164-.2-.25-.3l-25.193-28.542v-.161zm-31.857 0a16 16 0 1 1 -16-16 16.018 16.018 0 0 1 16 16zm176-16a16 16 0 1 1 -16 16 16.018 16.018 0 0 1 16-16zm-6.929 179.487-73.071 66.429v-29.916h-16v30.92l-80.782-67.32-13.245-59.6h38.027a8 8 0 0 0 8-8v-71.663l13.083 14.82a23.876 23.876 0 0 0 18.607 8.843h39.881a23.989 23.989 0 0 0 19.675-10.256l4.754-6.273v64.529a8 8 0 0 0 8 8h52.9z"/><path d="m285.565 217.872a13.959 13.959 0 0 0 -14.183 4.628c-4.284 5.125-8.371 4.062-11.8 2.345a40.145 40.145 0 0 0 -13.882-4.245 17.9 17.9 0 0 0 -16.659 27.765c6.447 9.643 18.311 15.635 30.959 15.635 19.851 0 36-14.355 36-32a18.116 18.116 0 0 0 -.379-3.74 13.531 13.531 0 0 0 -10.056-10.388zm-25.565 30.128c-7.375 0-14.142-3.269-17.66-8.53a1.777 1.777 0 0 1 -.052-2.04 1.751 1.751 0 0 1 1.579-.924 2.389 2.389 0 0 1 .241.012 24.35 24.35 0 0 1 8.313 2.637c9.333 4.667 18.825 3.932 26.417-1.779-2.766 6.186-10.166 10.624-18.838 10.624z"/><path d="m240 208h40a8 8 0 0 0 7.59-10.53l-8-24-15.18 5.06 4.49 13.47h-17.8l4.49-13.47-15.18-5.06-8 24a8 8 0 0 0 7.59 10.53z"/><circle cx="232" cy="400" r="8"/><circle cx="256" cy="416" r="8"/><circle cx="280" cy="400" r="8"/><circle cx="304" cy="376" r="8"/><circle cx="208" cy="376" r="8"/></svg>